# xmcd
#
# Track frame offsets:
# 150
# 23980
# 56051
# 77756
# 104762
# 126474
# 145577
#
# Disc length: 2212 seconds
#
# Revision: 0
# Processed by: cddbd v1.5.1PL0 Copyright (c) Steve Scherf et al.
# Submitted via: Audion 3.0.2 (http://www.panic.com/audion/)
#
DISCID=6208a207
DTITLE=Julian Shaw - Product
DYEAR=1900
DGENRE=
TTITLE0=Not The One To Blame
TTITLE1=Product
TTITLE2=Waste
TTITLE3=New Direction
TTITLE4=Cow
TTITLE5=Bovine Belch Inhibitor
TTITLE6=They Come At Night
EXTD=
EXTT0=
EXTT1=
EXTT2=
EXTT3=
EXTT4=
EXTT5=
EXTT6=
PLAYORDER=
